<svg width="35" height="35" viewBox="0 0 35 35" fill="none" xmlns="http://www.w3.org/2000/svg">
<rect x="0.130859" width="34.1306" height="34.1306" rx="13.1271" fill="white"/>
<path d="M17.2508 6.02041C14.4836 6.00324 11.8052 7.01058 9.71766 8.85362C7.6301 10.6967 6.27673 13.2489 5.91119 16.0319C5.54564 18.8149 6.19302 21.6376 7.73201 23.971C9.27101 26.3043 11.596 27.9882 14.2711 28.7068C14.2426 26.7554 14.2379 23.9965 14.2426 22.5738H11.5233C11.37 22.5738 11.223 22.512 11.1146 22.402C11.0062 22.2921 10.9454 22.1429 10.9454 21.9874V18.9161C10.9466 18.7614 11.0081 18.6135 11.1163 18.5046C11.2246 18.3956 11.3709 18.3345 11.5233 18.3345H14.2711C14.3042 15.8015 14.3468 15.1863 14.3468 15.1863C14.3468 14.6308 14.4547 14.0808 14.6642 13.5677C14.8737 13.0545 15.1807 12.5882 15.5678 12.1955C15.955 11.8027 16.4146 11.4911 16.9204 11.2786C17.4262 11.066 17.9683 10.9566 18.5158 10.9566H21.1213C21.242 10.9566 21.3616 10.9807 21.4731 11.0276C21.5846 11.0745 21.6859 11.1431 21.7712 11.2297C21.8566 11.3163 21.9242 11.4191 21.9704 11.5322C22.0166 11.6454 22.0404 11.7666 22.0404 11.8891V15.1863H19.9512C19.6199 15.1876 19.3024 15.3216 19.0682 15.5593C18.8339 15.797 18.7017 16.119 18.7005 16.4552C18.7005 17.229 18.7005 17.0848 18.7005 18.3345H21.5429C21.6107 18.3345 21.6779 18.3481 21.7406 18.3744C21.8032 18.4007 21.8601 18.4393 21.9081 18.488C21.956 18.5366 21.9941 18.5944 22.02 18.6579C22.046 18.7215 22.0593 18.7896 22.0593 18.8584V22.0307C22.0593 22.0995 22.046 22.1676 22.02 22.2312C21.9941 22.2947 21.956 22.3525 21.9081 22.4011C21.8601 22.4498 21.8032 22.4884 21.7406 22.5147C21.6779 22.541 21.6107 22.5546 21.5429 22.5546H18.7005C18.7005 23.9965 18.7005 26.9765 18.7005 29C21.6029 28.672 24.2696 27.2234 26.1479 24.9546C28.0262 22.6858 28.972 19.7708 28.7892 16.8137C28.6065 13.8565 27.3092 11.0842 25.1663 9.07114C23.0234 7.05813 20.1993 5.95886 17.2792 6.00118L17.2508 6.02041Z" fill="#896CFE"/>
</svg>
