<svg width="35" height="35" viewBox="0 0 35 35" fill="none" xmlns="http://www.w3.org/2000/svg">
<rect x="0.260742" width="34.1306" height="34.1306" rx="13.1271" fill="white"/>
<path d="M24.6196 26.7731C24.2578 25.5607 24.6812 24.2617 25.154 23.0864C25.9545 21.2343 26.3914 19.2447 26.4408 17.2266C26.4408 13.5853 25.1828 9.82859 22.4818 7.30899C21.1069 6.05833 19.3378 5.33189 17.4833 5.25652C15.6288 5.18114 13.8068 5.76163 12.3356 6.89661C9.12483 9.37086 8.09291 13.54 8.13813 17.4245V19.2885M21.4088 10.8884C19.7972 8.82654 17.5814 8.00179 15.3079 9.00798C13.5237 9.79974 12.3314 11.54 11.723 13.342C10.9542 15.6101 11.3119 17.9895 11.0611 20.3318C10.9254 21.6555 10.4527 23.0246 9.41667 23.8411M22.564 12.9874C23.0724 14.335 23.3288 15.7651 23.3204 17.206C23.3118 19.027 22.89 20.8222 22.0871 22.4555C21.6308 23.3916 20.6688 25.0411 19.3943 24.3937C18.3542 23.8658 18.5269 22.6452 18.8229 21.7132C19.3861 19.9441 20.2083 18.4142 20.2906 16.5091C20.3687 14.7235 19.8096 12.8472 18.0418 12.0967C17.5387 11.8799 16.978 11.8372 16.448 11.9753C15.918 12.1135 15.4489 12.4245 15.1147 12.8596C13.6141 14.9214 14.461 17.206 13.7662 19.4782M16.5495 19.8411C15.867 21.7545 15.0859 24.0349 15.7272 26.0638C16.5125 28.538 19.3368 29.3875 21.6061 28.5875M13.3634 22.2369C13.1503 23.0222 12.8453 23.7793 12.4548 24.4926C12.0627 25.2087 11.4972 25.8143 10.8103 26.2535M17.1867 17.173C17.3453 16.4742 17.3898 15.7541 17.3182 15.041C17.4077 15.7537 17.363 16.4768 17.1867 17.173Z" stroke="#896CFE" stroke-width="1.42515" stroke-linecap="round" stroke-linejoin="round"/>
</svg>
